<svg id="icon_CONTACT" data-name="icon CONTACT" xmlns="http://www.w3.org/2000/svg" width="20" height="24.143" viewBox="0 0 20 24.143">
  <g id="Ellipse_10" data-name="Ellipse 10" transform="translate(5 5)" fill="none" stroke="#002855" stroke-miterlimit="10" stroke-width="3">
    <circle cx="5" cy="5" r="5" stroke="none"/>
    <circle cx="5" cy="5" r="3.5" fill="none"/>
  </g>
  <g id="Path_28" data-name="Path 28" transform="translate(-171.91 -212.001)" fill="none" stroke-miterlimit="10">
    <path d="M188.981,229.072l-7.071,7.071-7.071-7.071a10,10,0,1,1,14.142,0Z" stroke="none"/>
    <path d="M 181.9100036621094 231.9003601074219 L 186.8596801757812 226.95068359375 C 189.5889434814453 224.221435546875 189.5889434814453 219.7805786132812 186.8594055175781 217.0510559082031 C 185.5374298095703 215.7287445068359 183.7796936035156 215.0005035400391 181.9100036621094 215.0005035400391 C 180.0402984619141 215.0005035400391 178.2825622558594 215.7287445068359 176.9600524902344 217.0515899658203 C 175.6377258300781 218.3735809326172 174.9095001220703 220.1313018798828 174.9095001220703 222.0010070800781 C 174.9095001220703 223.8707122802734 175.6377258300781 225.6284332275391 176.9603271484375 226.95068359375 L 181.9100036621094 231.9003601074219 M 181.9100036621094 236.1430053710938 L 174.8390045166016 229.0720062255859 C 170.9329986572266 225.1670074462891 170.9329986572266 218.8350067138672 174.8390045166016 214.9299926757812 C 178.7440032958984 211.0240173339844 185.0760040283203 211.0240173339844 188.9810028076172 214.9299926757812 C 192.8860015869141 218.8350067138672 192.8860015869141 225.1670074462891 188.9810028076172 229.0720062255859 L 181.9100036621094 236.1430053710938 Z" stroke="none" fill="#002855"/>
  </g>
</svg>
