<svg xmlns="http://www.w3.org/2000/svg" width="273.066" height="92.003" viewBox="0 0 273.066 92.003">
  <g id="LOGO_LS" data-name="LOGO LS" transform="translate(-738.819 -574.707)">
    <path id="Path_66" data-name="Path 66" d="M776.335,644.034a14.741,14.741,0,0,1-10.492-4.347l4.949-4.949a7.792,7.792,0,0,0,5.543,2.3Z" fill="#f2a900"/>
    <g id="Group_15" data-name="Group 15">
      <path id="Path_67" data-name="Path 67" d="M776.335,655.372v-7A19.178,19.178,0,0,0,789.9,615.634l-4.25-4.26a14.84,14.84,0,0,1,10.5-25.329v7a7.84,7.84,0,0,0-5.543,13.382l4.25,4.261a26.178,26.178,0,0,1-18.514,44.684Z" fill="#f2a900"/>
      <path id="Path_68" data-name="Path 68" d="M776.335,644.034v-7a7.839,7.839,0,0,0,5.543-13.382l-4.25-4.261a26.178,26.178,0,0,1,18.514-44.684v7a19.178,19.178,0,0,0-13.561,32.738l4.25,4.261a14.839,14.839,0,0,1-10.5,25.328Z" fill="#f2a900"/>
    </g>
    <g id="Group_16" data-name="Group 16">
      <path id="Path_69" data-name="Path 69" d="M776.335,655.372A26.208,26.208,0,0,1,750.157,629.2v-43.15h26.348v7H757.157V629.2a19.2,19.2,0,0,0,19.178,19.177Z" fill="#f2a900"/>
      <path id="Path_70" data-name="Path 70" d="M776.335,666.71A37.558,37.558,0,0,1,738.819,629.2h7a30.55,30.55,0,0,0,30.516,30.515Z" fill="#f2a900"/>
    </g>
    <rect id="Rectangle_33" data-name="Rectangle 33" width="7" height="43.814" transform="translate(738.82 586.045)" fill="#f2a900"/>
    <path id="Path_71" data-name="Path 71" d="M776.335,666.71v-7a30.313,30.313,0,0,0,21.578-8.937l4.949,4.949A37.266,37.266,0,0,1,776.335,666.71Z" fill="#f2a900"/>
    <g id="Group_17" data-name="Group 17">
      <path id="Path_72" data-name="Path 72" d="M825.952,585.879h8.461V608.6h12v7.089H825.952Z" fill="#002855"/>
      <path id="Path_73" data-name="Path 73" d="M848.612,585.879h8.461v29.81h-8.461Z" fill="#002855"/>
      <path id="Path_74" data-name="Path 74" d="M896.749,615.689v-29.81H909.44c7.13,0,10.956,2.941,10.956,8.3a6.757,6.757,0,0,1-2.861,6.044,7.277,7.277,0,0,1,4.311,6.808c0,5.68-4.189,8.661-11.28,8.661Zm8.46-18.209h3.948c1.611,0,2.779-.523,2.779-2.215,0-1.813-1.168-2.3-2.779-2.3h-3.948Zm0,11.12h4.915c1.772,0,2.981-.444,2.981-2.5,0-1.894-1.209-2.378-2.981-2.378h-4.915Z" fill="#002855"/>
      <path id="Path_75" data-name="Path 75" d="M924.521,603.563V585.879h8.46v18.086c0,3.022,1.409,5.117,4.592,5.117s4.552-2.095,4.552-5.117V585.879h8.46v17.684c0,7.937-4.632,12.609-13.012,12.609S924.521,611.5,924.521,603.563Z" fill="#002855"/>
      <path id="Path_76" data-name="Path 76" d="M975.218,605.617c1.248,2.176,2.295,2.781,4.995,3.1v7.091c-5.882,0-8.984-.928-11.643-5.923l-1.45-2.739h-3.665v8.541h-8.461v-29.81h12.772c7.452,0,12.165,3.706,12.165,10.715a9.131,9.131,0,0,1-5.2,8.178Zm-11.763-12.649v7.171h3.907c2.095,0,3.747-1.048,3.747-3.545,0-2.659-1.652-3.626-3.706-3.626Z" fill="#002855"/>
      <path id="Path_77" data-name="Path 77" d="M997.865,603.6v-5.519h14.02v1.489c0,10.6-5.2,16.6-14.5,16.6-10.07,0-15.589-6.122-15.589-15.389,0-9.185,5.237-15.387,15.711-15.387,3.625,0,8.136,1.248,10.634,3.665l-3.182,5.559a11.179,11.179,0,0,0-6.929-2.094c-5.156,0-7.412,3.344-7.412,8.257,0,4.956,2.134,8.3,6.767,8.3,3.1,0,5.4-1.571,5.882-5.478Z" fill="#002855"/>
    </g>
    <g id="Group_18" data-name="Group 18">
      <path id="Path_78" data-name="Path 78" d="M824.463,650.495l3.624-6.043a13.376,13.376,0,0,0,8.782,2.86c2.015,0,3.263-.565,3.263-1.732,0-1.411-2.013-2.215-4.189-2.861-4.754-1.409-10.474-3.424-10.474-9.789,0-5.639,4.189-9.3,11.4-9.3a19.839,19.839,0,0,1,10.958,3.1l-2.9,6a18.345,18.345,0,0,0-8.057-1.974c-1.652,0-2.9.4-2.9,1.45,0,1.289,2.176,2.013,3.989,2.578,5.317,1.611,10.674,3.948,10.674,9.95,0,5.761-4.068,9.668-11.763,9.668C833.163,654.4,828.128,653.8,824.463,650.495Z" fill="#002855"/>
      <path id="Path_79" data-name="Path 79" d="M851.686,624.109h12.328c7.169,0,12.245,3.665,12.245,11.319,0,7.533-5.076,11.239-12.245,11.239h-3.868v7.252h-8.46Zm11.038,15.469c3.626,0,4.713-1.411,4.713-4.15,0-2.82-1.087-4.23-4.713-4.23h-2.578v8.38Z" fill="#002855"/>
      <path id="Path_80" data-name="Path 80" d="M931.919,643.847c1.248,2.176,2.3,2.781,5,3.1v7.091c-5.883,0-8.985-.928-11.643-5.923l-1.45-2.739h-3.666v8.541H911.7v-29.81h12.771c7.452,0,12.165,3.706,12.165,10.715a9.128,9.128,0,0,1-5.2,8.178ZM920.156,631.2v7.171h3.907c2.1,0,3.748-1.048,3.748-3.545,0-2.659-1.652-3.626-3.707-3.626Z" fill="#002855"/>
      <path id="Path_81" data-name="Path 81" d="M945.745,631.2h-7.654v-7.089h23.726V631.2H954.2v22.721h-8.459Z" fill="#002855"/>
    </g>
    <path id="Path_82" data-name="Path 82" d="M893.476,623.626a15.388,15.388,0,1,0,15.387,15.387A15.387,15.387,0,0,0,893.476,623.626Zm0,23.614c-3.968,0-7.184-3.683-7.184-8.227s3.216-8.225,7.184-8.225,7.183,3.682,7.183,8.225S897.443,647.24,893.476,647.24Z" fill="#002855"/>
    <path id="Path_83" data-name="Path 83" d="M860.983,585.879H869l7.855,12.73,7.654-12.73h8.137v29.81h-8.459l0-15.752-7.33,11.28-7.411-11.28,0,15.752h-8.459Z" fill="#002855"/>
  </g>
</svg>
