<svg xmlns="http://www.w3.org/2000/svg" width="806" height="806" viewBox="0 0 806 806">
  <path id="Path_64" data-name="Path 64" d="M4.5,407.548C4.5,630.158,184.342,810,406.952,810S810.5,630.158,810.5,407.548,629.561,4,406.952,4,4.5,184.939,4.5,407.548Zm65.8,0C70.3,221.126,220.53,69.8,406.952,69.8S744.7,221.126,744.7,407.548,593.374,744.2,406.952,744.2A336.028,336.028,0,0,1,70.3,407.548Zm32.9,0c0,167.78,135.978,303.758,303.758,303.758S711.806,575.328,711.806,407.548,574.731,102.694,406.952,102.694,103.194,239.769,103.194,407.548Zm64.7,0c0-131.592,106.37-239.058,237.962-239.058S644.914,275.956,644.914,407.548,537.447,645.51,405.855,645.51A237.746,237.746,0,0,1,167.893,407.548Z" transform="translate(-4.5 -4)" fill="#fff" opacity="0.2"/>
</svg>
